<svg width="842" height="595" viewBox="0 0 842 595" fill="none" xmlns="http://www.w3.org/2000/svg">
<g clip-path="url(#clip0_319_993)">
<rect width="842" height="595" fill="white"/>
<rect width="842" height="597" fill="#FAC042"/>
<g clip-path="url(#clip1_319_993)">
<path d="M656.592 497.496H560.79V597H656.592V497.496Z" fill="#FF9955"/>
<path d="M560.79 497.496V597H564.622V497.496H560.79ZM568.454 497.496V597H572.286V497.496H568.454ZM576.118 497.496V597H579.95V497.496H576.118ZM583.782 497.496V597H587.614V497.496H583.782ZM591.447 497.496V597H595.279V497.496H591.447ZM599.111 497.496V597H602.943V497.496H599.111ZM606.775 497.496V597H610.607V497.496H606.775ZM614.439 497.496V597H618.271V497.496H614.439ZM622.103 497.496V597H625.935V497.496H622.103ZM629.768 497.496V597H633.6V497.496H629.768ZM637.432 497.496V597H641.264V497.496H637.432ZM645.096 497.496V597H648.928V497.496H645.096ZM652.76 497.496V597H656.592V497.496H652.76Z" fill="white"/>
<path d="M848.197 497.496H752.395V597H848.197V497.496Z" fill="#3CAEA3"/>
<path d="M848.197 497.496H752.395V501.476H848.197V497.496ZM848.197 505.456H752.395V509.436H848.197V505.456ZM848.197 513.416H752.395V517.396H848.197V513.416ZM848.197 521.377H752.395V525.357H848.197V521.377ZM848.197 529.337H752.395V533.317H848.197V529.337ZM848.197 537.297H752.395V541.278H848.197V537.297ZM848.197 545.258H752.395V549.238H848.197V545.258ZM848.197 553.218H752.395V557.198H848.197V553.218ZM848.197 561.178H752.395V565.159H848.197V561.178ZM848.197 569.139H752.395V573.119H848.197V569.139ZM848.197 577.099H752.395V581.079H848.197V577.099ZM848.197 585.059H752.395V589.04H848.197V585.059ZM848.197 593.02H752.395V597H848.197V593.02Z" fill="white"/>
<path fill-rule="evenodd" clip-rule="evenodd" d="M752.395 447.743C752.395 475.233 730.961 497.496 704.494 497.496C678.027 497.496 656.592 475.233 656.592 447.743C656.592 434.556 661.651 421.899 670.618 412.559C679.611 403.219 691.797 397.991 704.494 397.991C717.191 397.991 729.377 403.245 738.369 412.559C747.337 421.899 752.395 434.556 752.395 447.743Z" fill="#ED553B"/>
<path d="M752.395 497.496H656.592V597H752.395V497.496Z" fill="#173F5F"/>
<path fill-rule="evenodd" clip-rule="evenodd" d="M752.395 547.248C752.395 560.435 747.337 573.092 738.369 582.433C729.402 591.773 717.191 597 704.494 597C691.797 597 679.611 591.746 670.618 582.433C661.625 573.092 656.592 560.435 656.592 547.248C656.592 534.06 661.651 521.403 670.618 512.063C679.611 502.723 691.797 497.496 704.494 497.496C717.191 497.496 729.377 502.749 738.369 512.063C747.362 521.377 752.395 534.06 752.395 547.248Z" fill="#F6D55C"/>
<path d="M560.79 198.982H464.987V202.962H560.79V198.982ZM560.79 206.943H464.987V210.923H560.79V206.943ZM560.79 214.903H464.987V218.883H560.79V214.903ZM560.79 222.863H464.987V226.844H560.79V222.863ZM560.79 230.824H464.987V234.804H560.79V230.824ZM560.79 238.784H464.987V242.764H560.79V238.784ZM560.79 246.744H464.987V250.725H560.79V246.744ZM560.79 254.705H464.987V258.685H560.79V254.705ZM560.79 262.665H464.987V266.645H560.79V262.665ZM560.79 270.625H464.987V274.606H560.79V270.625ZM560.79 278.586H464.987V282.566H560.79V278.586ZM560.79 286.546H464.987V290.526H560.79V286.546ZM560.79 294.507H464.987V298.487H560.79V294.507Z" fill="#F6D55C"/>
<path d="M847.227 198.982L848.197 199.991V205.616L841.811 198.982H847.227ZM836.395 198.982L848.197 211.241V216.867L830.979 198.982H836.395ZM825.563 198.982L848.197 222.492V228.117L820.121 198.982H825.563ZM814.705 198.982L848.172 233.743V239.368L809.263 198.956H814.705V198.982ZM803.873 198.982L848.197 245.02V250.645L798.457 198.982H803.873ZM793.041 198.982L848.197 256.27V261.896L787.625 198.982H793.041ZM782.209 198.982L848.197 267.521V273.146L776.793 198.982H782.209ZM771.351 198.982L848.197 278.798V284.423L765.935 198.982H771.351ZM760.519 198.982L848.197 290.049V295.674L755.103 198.982H760.519ZM752.395 201.795L845.489 298.487H840.073L752.395 207.42V201.795ZM752.395 213.046L834.657 298.487H829.241L752.395 218.671V213.046ZM752.395 224.296L823.8 298.46H818.384L752.395 229.922V224.296ZM752.395 235.573L812.968 298.487H807.552L752.395 241.199V235.573ZM752.395 246.824L802.136 298.487H796.72L752.395 252.449V246.824ZM752.395 258.075L791.304 298.487H785.887L752.42 263.727V258.075H752.395ZM752.395 269.325L780.446 298.46H775.03L752.395 274.951V269.325ZM752.395 280.603L769.614 298.487H764.198L752.395 286.228V280.603ZM752.395 291.853L758.782 298.487H753.366L752.395 297.478V291.853Z" fill="#FF9955"/>
<path d="M656.592 298.487H560.79V397.991H656.592V298.487Z" fill="#173F5F"/>
<path d="M608.691 298.487C608.691 311.674 613.75 324.331 622.717 333.672C631.709 343.012 643.895 348.239 656.592 348.239V298.487H608.691Z" fill="#F6D55C"/>
<path d="M656.592 99.4779H560.79V198.982H656.592V99.4779Z" fill="#173F5F"/>
<path fill-rule="evenodd" clip-rule="evenodd" d="M656.592 124.341C656.592 138.086 645.862 149.23 632.629 149.23C626.268 149.23 620.187 146.603 615.691 141.933C611.195 137.263 608.666 130.948 608.666 124.341C608.666 117.734 611.195 111.418 615.691 106.748C620.187 102.078 626.268 99.4514 632.629 99.4514C645.862 99.478 656.592 110.622 656.592 124.341Z" fill="#ED553B"/>
<path d="M848.197 99.4779H752.395V198.982H848.197V99.4779Z" fill="white"/>
<path fill-rule="evenodd" clip-rule="evenodd" d="M848.197 124.341C848.197 130.948 845.668 137.263 841.172 141.933C836.676 146.603 830.595 149.23 824.234 149.23C817.873 149.23 811.793 146.603 807.296 141.933C802.8 137.263 800.271 130.948 800.271 124.341C800.271 117.734 802.8 111.418 807.296 106.748C811.793 102.078 817.873 99.4514 824.234 99.4514C830.595 99.4514 836.676 102.078 841.172 106.748C845.668 111.418 848.197 117.76 848.197 124.341Z" fill="#038C9C"/>
<path d="M752.395 99.4779H656.592V198.982H752.395V99.4779Z" fill="#EEB85E"/>
<path d="M657.538 99.478L656.567 100.486V106.112L662.954 99.478H657.538ZM668.395 99.478L656.592 111.737V117.362L673.811 99.478H668.395ZM679.227 99.478L656.592 122.988V128.613L684.643 99.478H679.227ZM690.059 99.478L656.592 134.238V139.863L695.501 99.4514H690.059V99.478ZM700.917 99.478L656.592 145.515V151.141L706.333 99.478H700.917ZM711.749 99.478L656.592 156.766V162.391L717.165 99.478H711.749ZM722.581 99.478L656.592 168.017V173.642L727.997 99.478H722.581ZM733.413 99.478L656.567 179.294V184.919L738.829 99.478H733.413ZM744.271 99.478L656.592 190.544V196.17L749.687 99.478H744.271ZM752.395 102.291L659.3 198.982H664.716L752.395 107.916V102.291ZM752.395 113.541L670.132 198.982H675.548L752.395 119.167V113.541ZM752.395 124.792L680.99 198.956H686.406L752.395 130.417V124.792ZM752.395 136.069L691.822 198.982H697.238L752.395 141.694V136.069ZM752.395 147.32L702.654 198.982H708.07L752.395 152.945V147.32ZM752.395 158.57L713.486 198.982H718.902L752.369 164.222V158.57H752.395ZM752.395 169.821L724.318 198.982H729.734L752.369 175.473V169.821H752.395ZM752.395 181.098L735.176 198.982H740.592L752.395 186.723V181.098ZM752.395 192.349L746.008 198.982H751.424L752.395 197.974V192.349Z" fill="white"/>
<mask id="mask0_319_993" style="mask-type:luminance" maskUnits="userSpaceOnUse" x="-14" y="0" width="958" height="597">
<path d="M944 0H-14V597H944V0Z" fill="white"/>
</mask>
<g mask="url(#mask0_319_993)">
<path d="M656.592 198.982H560.79V298.487H656.592V198.982Z" fill="#ED553B"/>
</g>
<mask id="mask1_319_993" style="mask-type:luminance" maskUnits="userSpaceOnUse" x="-14" y="0" width="958" height="597">
<path d="M944 0H-14V597H944V0Z" fill="white"/>
</mask>
<g mask="url(#mask1_319_993)">
<path d="M656.592 -0.0264893H560.79V99.4779H656.592V-0.0264893Z" fill="#028796"/>
</g>
<mask id="mask2_319_993" style="mask-type:luminance" maskUnits="userSpaceOnUse" x="-14" y="0" width="958" height="597">
<path d="M944 0H-14V597H944V0Z" fill="white"/>
</mask>
<g mask="url(#mask2_319_993)">
<path d="M752.395 -0.0264893H656.592V99.4779H752.395V-0.0264893Z" fill="white"/>
</g>
<mask id="mask3_319_993" style="mask-type:luminance" maskUnits="userSpaceOnUse" x="-14" y="0" width="958" height="597">
<path d="M944 0H-14V597H944V0Z" fill="white"/>
</mask>
<g mask="url(#mask3_319_993)">
<path d="M848.197 -0.0264893H752.395V99.4779H848.197V-0.0264893Z" fill="#3CAEA3"/>
</g>
<path d="M752.395 198.982H656.592V298.487H752.395V198.982Z" fill="#173F5F"/>
<path d="M848.197 298.487H752.395V397.991H848.197V298.487Z" fill="#173F5F"/>
<mask id="mask4_319_993" style="mask-type:luminance" maskUnits="userSpaceOnUse" x="-14" y="0" width="958" height="597">
<path d="M944 0H-14V597H944V0Z" fill="white"/>
</mask>
<g mask="url(#mask4_319_993)">
<path d="M656.592 -0.0264893H752.395L656.592 99.4779V-0.0264893Z" fill="#ED553B"/>
</g>
<mask id="mask5_319_993" style="mask-type:luminance" maskUnits="userSpaceOnUse" x="-14" y="0" width="958" height="597">
<path d="M944 0H-14V597H944V0Z" fill="white"/>
</mask>
<g mask="url(#mask5_319_993)">
<path d="M752.395 49.7257H704.494L752.395 -0.0264893V49.7257Z" fill="#F6D55C"/>
</g>
<mask id="mask6_319_993" style="mask-type:luminance" maskUnits="userSpaceOnUse" x="-14" y="0" width="958" height="597">
<path d="M944 0H-14V597H944V0Z" fill="white"/>
</mask>
<g mask="url(#mask6_319_993)">
<path d="M752.395 49.7257H704.494L752.395 99.4779V49.7257Z" fill="#FF9955"/>
</g>
<mask id="mask7_319_993" style="mask-type:luminance" maskUnits="userSpaceOnUse" x="-14" y="0" width="958" height="597">
<path d="M944 0H-14V597H944V0Z" fill="white"/>
</mask>
<g mask="url(#mask7_319_993)">
<path d="M656.592 -0.0264893H516.363V99.4779H656.592V-0.0264893Z" fill="#20639B"/>
</g>
<mask id="mask8_319_993" style="mask-type:luminance" maskUnits="userSpaceOnUse" x="-14" y="0" width="958" height="597">
<path d="M944 0H-14V597H944V0Z" fill="white"/>
</mask>
<g mask="url(#mask8_319_993)">
<path fill-rule="evenodd" clip-rule="evenodd" d="M560.79 49.7257C560.79 62.9134 555.731 75.5703 546.764 84.9105C537.772 94.2506 525.586 99.4779 512.888 99.4779C486.421 99.4779 464.987 77.2155 464.987 49.7257C464.987 22.236 486.421 -0.0264893 512.888 -0.0264893C525.586 -0.0264893 537.772 5.22734 546.764 14.541C555.757 23.8546 560.79 36.5381 560.79 49.7257Z" fill="#20639B"/>
</g>
<path fill-rule="evenodd" clip-rule="evenodd" d="M790.716 29.8248C790.716 35.3175 786.424 39.7753 781.136 39.7753C775.847 39.7753 771.555 35.3175 771.555 29.8248C771.555 27.1979 772.552 24.6506 774.366 22.7932C776.154 20.9358 778.606 19.8744 781.136 19.8744C786.424 19.8744 790.716 24.3322 790.716 29.8248Z" fill="white"/>
<path fill-rule="evenodd" clip-rule="evenodd" d="M829.037 29.8248C829.037 35.3175 824.745 39.7753 819.457 39.7753C814.168 39.7753 809.876 35.3175 809.876 29.8248C809.876 24.3322 814.168 19.8744 819.457 19.8744C821.986 19.8744 824.438 20.9092 826.227 22.7932C828.015 24.6506 829.037 27.1714 829.037 29.8248Z" fill="white"/>
<path fill-rule="evenodd" clip-rule="evenodd" d="M790.716 69.6266C790.716 75.1192 786.424 79.577 781.136 79.577C778.606 79.577 776.154 78.5422 774.366 76.6582C772.577 74.8008 771.555 72.2535 771.555 69.6266C771.555 66.9997 772.552 64.4524 774.366 62.5949C776.154 60.7375 778.606 59.6761 781.136 59.6761C786.424 59.6761 790.716 64.1339 790.716 69.6266Z" fill="white"/>
<path fill-rule="evenodd" clip-rule="evenodd" d="M829.037 69.6266C829.037 72.2535 828.041 74.8008 826.227 76.6582C824.438 78.5157 821.986 79.577 819.457 79.577C814.168 79.577 809.876 75.1192 809.876 69.6266C809.876 64.1339 814.168 59.6761 819.457 59.6761C821.986 59.6761 824.438 60.711 826.227 62.5949C828.015 64.4524 829.037 66.9731 829.037 69.6266Z" fill="white"/>
<path d="M704.494 198.982C704.494 226.472 683.059 248.735 656.592 248.735V198.982H704.494Z" fill="#ED553B"/>
<path d="M752.395 149.23C739.698 149.23 727.512 154.484 718.519 163.798C709.527 173.138 704.494 185.795 704.494 198.982H752.395V149.23Z" fill="#173F5F"/>
<path d="M608.691 298.487C608.691 270.997 630.125 248.734 656.592 248.734V298.487H608.691Z" fill="#173F5F"/>
<path fill-rule="evenodd" clip-rule="evenodd" d="M608.691 124.341C608.691 130.948 606.162 137.263 601.665 141.933C597.169 146.603 591.089 149.23 584.728 149.23C578.366 149.23 572.286 146.603 567.79 141.933C563.293 137.263 560.764 130.948 560.764 124.341C560.764 117.734 563.293 111.418 567.79 106.748C572.286 102.078 578.366 99.4514 584.728 99.4514C591.089 99.4514 597.169 102.078 601.665 106.748C606.162 111.418 608.691 117.76 608.691 124.341Z" fill="#FF9955"/>
<path fill-rule="evenodd" clip-rule="evenodd" d="M608.691 174.093C608.691 180.7 606.162 187.015 601.665 191.685C597.169 196.355 591.089 198.982 584.728 198.982C578.366 198.982 572.286 196.355 567.79 191.685C563.293 187.015 560.764 180.7 560.764 174.093C560.764 167.486 563.293 161.171 567.79 156.501C572.286 151.831 578.366 149.204 584.728 149.204C591.089 149.204 597.169 151.831 601.665 156.501C606.162 161.171 608.691 167.512 608.691 174.093Z" fill="#3CAEA3"/>
<path fill-rule="evenodd" clip-rule="evenodd" d="M656.592 174.093C656.592 187.838 645.862 198.982 632.629 198.982C626.268 198.982 620.187 196.355 615.691 191.685C611.195 187.015 608.666 180.7 608.666 174.093C608.666 167.486 611.195 161.171 615.691 156.501C620.187 151.831 626.268 149.204 632.629 149.204C645.862 149.23 656.592 160.375 656.592 174.093Z" fill="#F6D55C"/>
<path d="M608.691 298.487C608.691 311.674 603.633 324.331 594.666 333.672C585.673 343.012 573.487 348.239 560.79 348.239V298.487H608.691Z" fill="#D04E3E"/>
<path d="M608.691 397.991C608.691 370.501 630.125 348.239 656.592 348.239V397.991H608.691Z" fill="#3CAEA3"/>
<path d="M608.691 397.991C608.691 384.804 603.633 372.147 594.666 362.806C585.673 353.466 573.487 348.239 560.79 348.239V397.991H608.691Z" fill="#20639B"/>
<path d="M752.395 298.487H656.592V348.239H752.395V298.487Z" fill="#F6D55C"/>
<path d="M848.197 149.23H752.395V198.982H848.197V149.23Z" fill="#20639B"/>
<path fill-rule="evenodd" clip-rule="evenodd" d="M800.296 124.341C800.296 138.086 789.566 149.23 776.333 149.23C769.972 149.23 763.891 146.603 759.395 141.933C754.899 137.263 752.369 130.948 752.369 124.341C752.369 117.734 754.899 111.418 759.395 106.748C763.891 102.078 769.972 99.4514 776.333 99.4514C789.566 99.478 800.296 110.622 800.296 124.341Z" fill="#ED553B"/>
<path d="M656.592 497.496C631.173 497.496 606.826 487.014 588.841 468.361C570.881 449.707 560.79 424.393 560.79 397.991H656.592V497.496Z" fill="#3CAEA3"/>
<path d="M848.197 298.487H752.395L848.197 198.982V298.487Z" fill="#FF9955"/>
<path d="M560.79 149.23H512.888V198.982H560.79V149.23Z" fill="#20639B"/>
<path d="M752.395 348.239H704.494V397.991H752.395V348.239Z" fill="#F6D55C"/>
<mask id="mask9_319_993" style="mask-type:luminance" maskUnits="userSpaceOnUse" x="-14" y="0" width="958" height="597">
<path d="M944 0H-14V597H944V0Z" fill="white"/>
</mask>
<g mask="url(#mask9_319_993)">
<path d="M656.592 -0.0264893H560.79V3.95369H656.592V-0.0264893ZM656.592 7.93386H560.79V11.914H656.592V7.93386ZM656.592 15.8942H560.79V19.8744H656.592V15.8942ZM656.592 23.8546H560.79V27.8347H656.592V23.8546ZM656.592 31.8149H560.79V35.7951H656.592V31.8149ZM656.592 39.7753H560.79V43.7555H656.592V39.7753ZM656.592 47.7356H560.79V51.7158H656.592V47.7356ZM656.592 55.696H560.79V59.6762H656.592V55.696ZM656.592 63.6563H560.79V67.6365H656.592V63.6563ZM656.592 71.6167H560.79V75.5969H656.592V71.6167ZM656.592 79.577H560.79V83.5572H656.592V79.577ZM656.592 87.5374H560.79V91.5176H656.592V87.5374ZM656.592 95.4978H560.79V99.4779H656.592V95.4978Z" fill="white"/>
</g>
<path d="M655.622 298.487L656.592 299.495V305.12L650.205 298.487H655.622ZM644.789 298.487L656.592 310.746V316.371L639.373 298.487H644.789ZM633.957 298.487L656.592 321.996V327.622L628.516 298.487H633.957ZM623.1 298.487L656.567 333.247V338.872L617.658 298.46H623.1V298.487ZM612.268 298.487L656.592 344.524V350.149L606.852 298.487H612.268ZM601.436 298.487L656.592 355.775V361.4L596.02 298.487H601.436ZM590.604 298.487L656.592 367.025V372.651L585.187 298.487H590.604ZM579.746 298.487L656.592 378.303V383.928L574.33 298.487H579.746ZM568.914 298.487L656.592 389.553V395.179L563.498 298.487H568.914ZM560.79 301.299L653.884 397.991H648.468L560.79 306.925V301.299ZM560.79 312.55L643.052 397.991H637.636L560.79 318.175V312.55ZM560.79 323.801L632.195 397.965H626.779L560.79 329.426V323.801ZM560.79 335.078L621.363 397.991H615.946L560.79 340.703V335.078ZM560.79 346.328L610.53 397.991H605.114L560.79 351.954V346.328ZM560.79 357.579L599.698 397.991H594.282L560.815 363.231V357.579H560.79ZM560.79 368.83L588.841 397.965H583.425L560.79 374.455V368.83ZM560.79 380.107L578.009 397.991H572.593L560.79 385.732V380.107ZM560.79 391.358L567.177 397.991H561.761L560.79 396.983V391.358Z" fill="white"/>
<path fill-rule="evenodd" clip-rule="evenodd" d="M848.197 397.991C821.73 397.991 800.296 420.254 800.296 447.743C800.296 475.233 821.73 497.496 848.197 497.496V397.991Z" fill="#F6D55C"/>
<path d="M560.79 198.982H464.987L560.79 298.487V198.982Z" fill="#F6D55C"/>
<path d="M848.197 497.496H752.395V547.248H848.197V497.496Z" fill="#3CAEA3"/>
<path d="M560.79 149.23H512.888L560.79 99.4779V149.23Z" fill="#3CAEA3"/>
<path d="M800.296 397.991H752.395V497.496H800.296V397.991Z" fill="#3CAEA3"/>
<path d="M560.79 597C535.37 597 511.024 586.519 493.038 567.865C475.078 549.211 464.987 523.897 464.987 497.496H560.79V597Z" fill="#FF9955"/>
<path d="M92.5852 240.824C92.2633 239.631 91.7898 238.58 91.1648 237.67C90.5398 236.742 89.7727 235.956 88.8636 235.312C87.9545 234.669 86.9129 234.186 85.7386 233.864C84.5644 233.523 83.2765 233.352 81.875 233.352C79.053 233.352 76.6098 234.034 74.5455 235.398C72.5 236.761 70.9186 238.75 69.8011 241.364C68.6837 243.958 68.125 247.112 68.125 250.824C68.125 254.555 68.6648 257.737 69.7443 260.369C70.8239 263.002 72.3864 265.009 74.4318 266.392C76.4773 267.775 78.9583 268.466 81.875 268.466C84.4508 268.466 86.6288 268.049 88.4091 267.216C90.2083 266.364 91.572 265.161 92.5 263.608C93.428 262.055 93.892 260.227 93.892 258.125L96.5057 258.438H82.358V248.182H107.443V255.881C107.443 261.089 106.335 265.549 104.119 269.261C101.922 272.973 98.892 275.824 95.0284 277.812C91.1837 279.801 86.7614 280.795 81.7614 280.795C76.2121 280.795 71.3352 279.593 67.1307 277.188C62.9261 274.782 59.6496 271.354 57.3011 266.903C54.9527 262.434 53.7784 257.131 53.7784 250.994C53.7784 246.222 54.4886 241.989 55.9091 238.295C57.3295 234.583 59.3087 231.439 61.8466 228.864C64.4034 226.288 67.358 224.337 70.7102 223.011C74.0814 221.686 77.7083 221.023 81.5909 221.023C84.9621 221.023 88.0966 221.506 90.9943 222.472C93.911 223.438 96.4867 224.801 98.7216 226.562C100.975 228.324 102.803 230.417 104.205 232.841C105.606 235.265 106.477 237.926 106.818 240.824H92.5852ZM115.732 280V236.364H129.226V244.318H129.68C130.476 241.439 131.773 239.299 133.572 237.898C135.372 236.477 137.464 235.767 139.851 235.767C140.495 235.767 141.158 235.814 141.839 235.909C142.521 235.985 143.156 236.108 143.743 236.278V248.352C143.08 248.125 142.209 247.945 141.129 247.812C140.069 247.68 139.122 247.614 138.288 247.614C136.641 247.614 135.154 247.983 133.828 248.722C132.521 249.441 131.489 250.455 130.732 251.761C129.993 253.049 129.624 254.564 129.624 256.307V280H115.732ZM160.064 280.739C157.28 280.739 154.808 280.275 152.649 279.347C150.509 278.4 148.814 276.979 147.564 275.085C146.333 273.172 145.717 270.777 145.717 267.898C145.717 265.473 146.143 263.428 146.996 261.761C147.848 260.095 149.022 258.741 150.518 257.699C152.015 256.657 153.738 255.871 155.689 255.341C157.64 254.792 159.723 254.422 161.939 254.233C164.42 254.006 166.418 253.769 167.933 253.523C169.448 253.258 170.547 252.888 171.229 252.415C171.929 251.922 172.28 251.231 172.28 250.341V250.199C172.28 248.741 171.778 247.614 170.774 246.818C169.77 246.023 168.416 245.625 166.712 245.625C164.875 245.625 163.397 246.023 162.28 246.818C161.162 247.614 160.452 248.712 160.149 250.114L147.337 249.659C147.715 247.008 148.691 244.64 150.263 242.557C151.854 240.455 154.032 238.807 156.797 237.614C159.581 236.402 162.924 235.795 166.825 235.795C169.609 235.795 172.176 236.127 174.524 236.79C176.873 237.434 178.918 238.381 180.661 239.631C182.403 240.862 183.748 242.377 184.695 244.176C185.661 245.975 186.143 248.03 186.143 250.341V280H173.075V273.92H172.734C171.958 275.398 170.964 276.648 169.751 277.67C168.558 278.693 167.147 279.46 165.518 279.972C163.909 280.483 162.09 280.739 160.064 280.739ZM164.354 271.648C165.85 271.648 167.195 271.345 168.388 270.739C169.6 270.133 170.566 269.299 171.286 268.239C172.005 267.159 172.365 265.909 172.365 264.489V260.341C171.967 260.549 171.484 260.739 170.916 260.909C170.367 261.08 169.761 261.241 169.098 261.392C168.435 261.544 167.753 261.676 167.053 261.79C166.352 261.903 165.679 262.008 165.036 262.102C163.729 262.311 162.611 262.633 161.683 263.068C160.774 263.504 160.073 264.072 159.581 264.773C159.107 265.455 158.871 266.269 158.871 267.216C158.871 268.655 159.382 269.754 160.405 270.511C161.446 271.269 162.763 271.648 164.354 271.648ZM194.638 296.364V236.364H208.388V243.835H208.814C209.382 242.509 210.187 241.231 211.229 240C212.289 238.769 213.634 237.765 215.263 236.989C216.911 236.193 218.88 235.795 221.172 235.795C224.202 235.795 227.034 236.591 229.666 238.182C232.318 239.773 234.458 242.225 236.087 245.54C237.715 248.854 238.53 253.078 238.53 258.21C238.53 263.153 237.744 267.292 236.172 270.625C234.619 273.958 232.517 276.458 229.865 278.125C227.232 279.792 224.306 280.625 221.087 280.625C218.89 280.625 216.986 280.265 215.376 279.545C213.767 278.826 212.412 277.879 211.314 276.705C210.234 275.53 209.401 274.271 208.814 272.926H208.53V296.364H194.638ZM208.246 258.182C208.246 260.53 208.558 262.576 209.183 264.318C209.827 266.061 210.746 267.415 211.939 268.381C213.151 269.328 214.6 269.801 216.286 269.801C217.99 269.801 219.439 269.328 220.632 268.381C221.825 267.415 222.725 266.061 223.331 264.318C223.956 262.576 224.268 260.53 224.268 258.182C224.268 255.833 223.956 253.797 223.331 252.074C222.725 250.35 221.825 249.015 220.632 248.068C219.458 247.121 218.009 246.648 216.286 246.648C214.581 246.648 213.132 247.112 211.939 248.04C210.746 248.968 209.827 250.294 209.183 252.017C208.558 253.741 208.246 255.795 208.246 258.182ZM259.702 255.114V280H245.81V221.818H259.247V244.375H259.73C260.715 241.686 262.325 239.583 264.56 238.068C266.813 236.553 269.569 235.795 272.827 235.795C275.895 235.795 278.565 236.477 280.838 237.841C283.111 239.186 284.872 241.089 286.122 243.551C287.391 246.013 288.016 248.892 287.997 252.188V280H274.105V254.915C274.124 252.491 273.518 250.597 272.287 249.233C271.056 247.869 269.323 247.188 267.088 247.188C265.63 247.188 264.342 247.509 263.224 248.153C262.126 248.778 261.264 249.678 260.639 250.852C260.033 252.027 259.721 253.447 259.702 255.114ZM296.669 280V236.364H310.561V280H296.669ZM303.629 231.278C301.679 231.278 300.002 230.634 298.601 229.347C297.199 228.04 296.499 226.468 296.499 224.631C296.499 222.812 297.199 221.259 298.601 219.972C300.002 218.665 301.679 218.011 303.629 218.011C305.599 218.011 307.275 218.665 308.658 219.972C310.059 221.259 310.76 222.812 310.76 224.631C310.76 226.468 310.059 228.04 308.658 229.347C307.275 230.634 305.599 231.278 303.629 231.278ZM339.773 280.824C335.17 280.824 331.222 279.877 327.926 277.983C324.65 276.089 322.131 273.456 320.369 270.085C318.608 266.695 317.727 262.775 317.727 258.324C317.727 253.854 318.608 249.934 320.369 246.562C322.15 243.172 324.678 240.53 327.955 238.636C331.25 236.742 335.18 235.795 339.744 235.795C343.778 235.795 347.292 236.525 350.284 237.983C353.295 239.441 355.644 241.506 357.33 244.176C359.034 246.828 359.934 249.943 360.028 253.523H347.045C346.78 251.288 346.023 249.536 344.773 248.267C343.542 246.998 341.932 246.364 339.943 246.364C338.333 246.364 336.922 246.818 335.71 247.727C334.498 248.617 333.551 249.943 332.869 251.705C332.206 253.447 331.875 255.606 331.875 258.182C331.875 260.758 332.206 262.936 332.869 264.716C333.551 266.477 334.498 267.812 335.71 268.722C336.922 269.612 338.333 270.057 339.943 270.057C341.231 270.057 342.367 269.782 343.352 269.233C344.356 268.684 345.18 267.879 345.824 266.818C346.468 265.739 346.875 264.432 347.045 262.898H360.028C359.896 266.496 358.996 269.64 357.33 272.33C355.682 275.019 353.362 277.112 350.369 278.608C347.396 280.085 343.864 280.824 339.773 280.824ZM378.7 221.818V228.295C378.7 230.095 378.34 231.913 377.621 233.75C376.92 235.568 376.001 237.273 374.865 238.864C373.729 240.455 372.526 241.799 371.257 242.898L365.348 239.659C366.219 238.22 366.996 236.6 367.678 234.801C368.359 232.983 368.7 230.824 368.7 228.324V221.818H378.7ZM419.375 249.688L406.619 250.028C406.487 249.119 406.127 248.314 405.54 247.614C404.953 246.894 404.186 246.335 403.239 245.938C402.311 245.521 401.231 245.312 400 245.312C398.39 245.312 397.017 245.634 395.881 246.278C394.763 246.922 394.214 247.794 394.233 248.892C394.214 249.744 394.555 250.483 395.256 251.108C395.975 251.733 397.254 252.235 399.091 252.614L407.5 254.205C411.856 255.038 415.095 256.42 417.216 258.352C419.356 260.284 420.436 262.841 420.455 266.023C420.436 269.015 419.545 271.619 417.784 273.835C416.042 276.051 413.655 277.775 410.625 279.006C407.595 280.218 404.129 280.824 400.227 280.824C393.996 280.824 389.081 279.545 385.483 276.989C381.903 274.413 379.858 270.966 379.347 266.648L393.068 266.307C393.371 267.898 394.157 269.11 395.426 269.943C396.695 270.777 398.314 271.193 400.284 271.193C402.064 271.193 403.513 270.862 404.631 270.199C405.748 269.536 406.316 268.655 406.335 267.557C406.316 266.572 405.881 265.786 405.028 265.199C404.176 264.593 402.841 264.119 401.023 263.778L393.409 262.33C389.034 261.534 385.777 260.066 383.636 257.926C381.496 255.767 380.436 253.021 380.455 249.688C380.436 246.771 381.212 244.28 382.784 242.216C384.356 240.133 386.591 238.542 389.489 237.443C392.386 236.345 395.805 235.795 399.744 235.795C405.653 235.795 410.313 237.036 413.722 239.517C417.131 241.979 419.015 245.369 419.375 249.688ZM54.4034 377V318.818H78.4375C82.7936 318.818 86.553 319.67 89.7159 321.375C92.8977 323.061 95.3504 325.419 97.0739 328.449C98.7973 331.46 99.6591 334.964 99.6591 338.96C99.6591 342.975 98.7784 346.489 97.017 349.5C95.2746 352.492 92.7841 354.812 89.5455 356.46C86.3068 358.108 82.4621 358.932 78.0114 358.932H63.1818V347.852H75.3977C77.5189 347.852 79.2898 347.483 80.7102 346.744C82.1496 346.006 83.2386 344.973 83.9773 343.648C84.7159 342.303 85.0852 340.741 85.0852 338.96C85.0852 337.161 84.7159 335.608 83.9773 334.301C83.2386 332.975 82.1496 331.953 80.7102 331.233C79.2708 330.513 77.5 330.153 75.3977 330.153H68.4659V377H54.4034ZM106.591 377V333.364H120.085V341.318H120.54C121.335 338.439 122.633 336.299 124.432 334.898C126.231 333.477 128.324 332.767 130.71 332.767C131.354 332.767 132.017 332.814 132.699 332.909C133.381 332.985 134.015 333.108 134.602 333.278V345.352C133.939 345.125 133.068 344.945 131.989 344.812C130.928 344.68 129.981 344.614 129.148 344.614C127.5 344.614 126.013 344.983 124.688 345.722C123.381 346.441 122.348 347.455 121.591 348.761C120.852 350.049 120.483 351.564 120.483 353.307V377H106.591ZM158.366 377.824C153.783 377.824 149.844 376.886 146.548 375.011C143.272 373.117 140.743 370.485 138.963 367.114C137.202 363.723 136.321 359.794 136.321 355.324C136.321 350.835 137.202 346.905 138.963 343.534C140.743 340.144 143.272 337.511 146.548 335.636C149.844 333.742 153.783 332.795 158.366 332.795C162.95 332.795 166.88 333.742 170.156 335.636C173.452 337.511 175.98 340.144 177.741 343.534C179.522 346.905 180.412 350.835 180.412 355.324C180.412 359.794 179.522 363.723 177.741 367.114C175.98 370.485 173.452 373.117 170.156 375.011C166.88 376.886 162.95 377.824 158.366 377.824ZM158.452 367.341C160.118 367.341 161.529 366.83 162.685 365.807C163.84 364.784 164.721 363.364 165.327 361.545C165.952 359.727 166.264 357.625 166.264 355.239C166.264 352.814 165.952 350.693 165.327 348.875C164.721 347.057 163.84 345.636 162.685 344.614C161.529 343.591 160.118 343.08 158.452 343.08C156.728 343.08 155.27 343.591 154.077 344.614C152.902 345.636 152.003 347.057 151.378 348.875C150.772 350.693 150.469 352.814 150.469 355.239C150.469 357.625 150.772 359.727 151.378 361.545C152.003 363.364 152.902 364.784 154.077 365.807C155.27 366.83 156.728 367.341 158.452 367.341ZM187.528 333.364H201.42V378.818C201.42 382.417 200.682 385.277 199.205 387.398C197.746 389.519 195.682 391.044 193.011 391.972C190.341 392.9 187.188 393.364 183.551 393.364C183.059 393.364 182.595 393.354 182.159 393.335C181.723 393.316 181.25 393.297 180.739 393.278V382.739C181.08 382.777 181.383 382.805 181.648 382.824C181.913 382.843 182.178 382.852 182.443 382.852C184.356 382.852 185.682 382.492 186.42 381.773C187.159 381.072 187.528 379.992 187.528 378.534V333.364ZM194.46 328.278C192.509 328.278 190.833 327.634 189.432 326.347C188.03 325.04 187.33 323.468 187.33 321.631C187.33 319.812 188.03 318.259 189.432 316.972C190.833 315.665 192.509 315.011 194.46 315.011C196.43 315.011 198.106 315.665 199.489 316.972C200.89 318.259 201.591 319.812 201.591 321.631C201.591 323.468 200.89 325.04 199.489 326.347C198.106 327.634 196.43 328.278 194.46 328.278ZM230.661 377.824C226.096 377.824 222.157 376.924 218.842 375.125C215.547 373.307 213.009 370.722 211.229 367.369C209.467 363.998 208.587 359.992 208.587 355.352C208.587 350.845 209.477 346.905 211.257 343.534C213.037 340.144 215.547 337.511 218.786 335.636C222.024 333.742 225.84 332.795 230.234 332.795C233.34 332.795 236.181 333.278 238.757 334.244C241.333 335.21 243.558 336.64 245.433 338.534C247.308 340.428 248.767 342.767 249.808 345.551C250.85 348.316 251.371 351.489 251.371 355.068V358.534H213.445V350.466H238.445C238.426 348.989 238.075 347.672 237.393 346.517C236.712 345.362 235.774 344.462 234.581 343.818C233.407 343.155 232.053 342.824 230.518 342.824C228.965 342.824 227.573 343.174 226.342 343.875C225.111 344.557 224.136 345.494 223.416 346.688C222.696 347.862 222.318 349.197 222.28 350.693V358.903C222.28 360.684 222.63 362.246 223.331 363.591C224.032 364.917 225.026 365.949 226.314 366.688C227.602 367.426 229.136 367.795 230.916 367.795C232.147 367.795 233.265 367.625 234.268 367.284C235.272 366.943 236.134 366.441 236.854 365.778C237.573 365.116 238.113 364.301 238.473 363.335L251.229 363.705C250.698 366.564 249.534 369.055 247.734 371.176C245.954 373.278 243.615 374.917 240.717 376.091C237.82 377.246 234.467 377.824 230.661 377.824ZM278.835 377.824C274.233 377.824 270.284 376.877 266.989 374.983C263.712 373.089 261.193 370.456 259.432 367.085C257.67 363.695 256.79 359.775 256.79 355.324C256.79 350.854 257.67 346.934 259.432 343.562C261.212 340.172 263.741 337.53 267.017 335.636C270.313 333.742 274.242 332.795 278.807 332.795C282.841 332.795 286.354 333.525 289.347 334.983C292.358 336.441 294.706 338.506 296.392 341.176C298.097 343.828 298.996 346.943 299.091 350.523H286.108C285.843 348.288 285.085 346.536 283.835 345.267C282.604 343.998 280.994 343.364 279.006 343.364C277.396 343.364 275.985 343.818 274.773 344.727C273.561 345.617 272.614 346.943 271.932 348.705C271.269 350.447 270.938 352.606 270.938 355.182C270.938 357.758 271.269 359.936 271.932 361.716C272.614 363.477 273.561 364.812 274.773 365.722C275.985 366.612 277.396 367.057 279.006 367.057C280.294 367.057 281.43 366.782 282.415 366.233C283.419 365.684 284.242 364.879 284.886 363.818C285.53 362.739 285.938 361.432 286.108 359.898H299.091C298.958 363.496 298.059 366.64 296.392 369.33C294.744 372.019 292.424 374.112 289.432 375.608C286.458 377.085 282.926 377.824 278.835 377.824ZM330.831 333.364V343.591H303.303V333.364H330.831ZM309.07 322.909H322.962V363.278C322.962 364.131 323.094 364.822 323.359 365.352C323.643 365.864 324.051 366.233 324.581 366.46C325.111 366.669 325.746 366.773 326.484 366.773C327.015 366.773 327.573 366.725 328.161 366.631C328.767 366.517 329.221 366.422 329.524 366.347L331.626 376.375C330.964 376.564 330.026 376.801 328.814 377.085C327.621 377.369 326.191 377.549 324.524 377.625C321.267 377.777 318.473 377.398 316.143 376.489C313.833 375.561 312.062 374.121 310.831 372.17C309.619 370.22 309.032 367.767 309.07 364.812V322.909Z" fill="white"/>
</g>
</g>
<defs>
<clipPath id="clip0_319_993">
<rect width="842" height="595" fill="white"/>
</clipPath>
<clipPath id="clip1_319_993">
<rect width="958" height="597" fill="white" transform="translate(-14)"/>
</clipPath>
</defs>
</svg>
